<svg width="20" height="21" viewBox="0 0 20 21" fill="none" xmlns="http://www.w3.org/2000/svg">
<path d="M9.75618 0.25C8.21243 0.25 4.39368 0.4125 2.36244 2.3625C0.899935 3.74375 0.331185 5.85625 0.249935 8.375C0.0874351 12.3563 0.981185 14.875 2.44369 16.175C2.76868 16.4188 3.58118 17.0688 5.12494 17.5563V19.5875C5.12494 19.5875 5.12494 20.4 5.61244 20.5625C5.69369 20.5625 5.77493 20.6438 5.85618 20.6438C6.34368 20.6438 6.74993 20.075 7.31868 19.5063C7.80618 18.9375 8.21244 18.5313 8.45619 18.125H10.2437C11.7874 18.125 15.6062 17.9625 17.6374 16.0125C19.0999 14.55 19.6687 12.4375 19.6687 9.75625C19.7499 9.35 19.7499 8.8625 19.7499 8.375C19.6687 5.36875 18.7749 3.3375 17.5562 2.2C17.0687 1.79375 14.9562 0.25 10.4062 0.25H9.75618ZM9.59369 1.79375H10.3249C14.6312 1.79375 16.2562 3.175 16.4187 3.3375C17.3937 4.15 17.9624 5.9375 18.0437 8.29375V8.61875C18.1249 9.10625 18.1249 9.5125 18.1249 9.75625C18.0437 12.1938 17.5562 13.8188 16.5812 14.875C14.8749 16.4188 11.2999 16.5 10.3249 16.5H8.78119L7.48118 17.9625L6.66868 18.8563L6.50618 19.1C6.34368 19.2625 6.09994 19.5875 5.93744 19.6688V16.0125C4.31244 15.6063 3.66243 15.0375 3.49993 14.875C2.36243 13.9 1.71244 11.5438 1.87494 8.375V7.5625C2.03744 5.6125 2.52494 4.3125 3.33744 3.41875C5.04368 1.875 8.61868 1.79375 9.59369 1.79375ZM9.51243 3.58125C9.10618 3.58125 9.10618 4.15 9.51243 4.15C12.5187 4.15 15.1187 6.18125 15.1187 10C15.1187 10.4063 15.6874 10.4063 15.6874 10C15.6874 5.85625 12.9249 3.5 9.51243 3.58125ZM6.2925 4.33281C6.1084 4.31075 5.92297 4.36148 5.77575 4.47419C4.96325 4.88044 4.14994 5.69456 4.39369 6.58831C4.39369 6.58831 4.55618 7.31875 5.44993 8.8625C5.93743 9.59375 6.34369 10.2438 6.74994 10.7313C7.15619 11.3 7.80619 11.95 8.45619 12.4375C9.75619 13.4938 11.7874 14.55 12.6812 14.7938C13.4937 15.0375 14.3874 14.225 14.7937 13.4125C14.9562 13.0875 14.8749 12.6813 14.5499 12.4375C14.0624 11.95 13.2499 11.3813 12.6812 11.0563C12.2749 10.8125 11.7874 10.975 11.6249 11.2188L11.2187 11.7063C11.0562 11.95 10.6499 11.95 10.6499 11.95C7.96868 11.2188 7.23744 8.45625 7.23744 8.45625C7.23744 8.45625 7.23743 8.13125 7.48118 7.8875L7.96869 7.48125C8.21243 7.31875 8.37494 6.83125 8.13118 6.425C7.96868 6.18125 7.72493 5.69375 7.48118 5.45C7.23743 5.125 6.74994 4.55625 6.74994 4.55625C6.62666 4.43281 6.46564 4.35416 6.2925 4.33281ZM10.0812 5.20625C9.67494 5.125 9.59369 5.775 9.99994 5.775C12.2749 5.9375 13.5749 7.48125 13.4937 9.43125C13.4124 9.8375 14.0624 9.8375 14.0624 9.43125C14.1437 7.15625 12.6812 5.2875 10.0812 5.20625ZM10.3249 6.75C9.91868 6.66875 9.91868 7.31875 10.3249 7.31875C11.2999 7.31875 11.7874 7.8875 11.7874 8.8625C11.8687 9.26875 12.4374 9.26875 12.4374 8.8625C12.3562 7.5625 11.6249 6.75 10.3249 6.75Z" fill="white"/>
</svg>
