<svg width="23" height="21" viewBox="0 0 23 21" fill="none" xmlns="http://www.w3.org/2000/svg">
<path d="M21.487 1.22323C21.2631 1.02991 20.9906 0.901531 20.699 0.851996C20.4073 0.802461 20.1077 0.833655 19.8325 0.942202L1.08847 8.30599C0.761811 8.43437 0.485496 8.66507 0.300865 8.96357C0.116233 9.26207 0.0332104 9.61232 0.0642159 9.96193C0.0952214 10.3115 0.238589 10.6417 0.47287 10.9031C0.707152 11.1644 1.01975 11.3429 1.36391 11.4118L6.12506 12.3642V18.311C6.12478 18.6325 6.21991 18.9469 6.39841 19.2143C6.57691 19.4817 6.83076 19.6901 7.12779 19.8132C7.42483 19.9362 7.7517 19.9683 8.06701 19.9055C8.38232 19.8426 8.67188 19.6876 8.89904 19.4601L11.534 16.8253L15.5331 20.3444C15.8275 20.6059 16.2075 20.7505 16.6012 20.7511C16.7724 20.7509 16.9425 20.7239 17.1053 20.6711C17.3739 20.5859 17.6154 20.4318 17.8058 20.2241C17.9963 20.0165 18.1289 19.7625 18.1905 19.4875L22.0107 2.81786C22.0772 2.52959 22.0636 2.22862 21.9713 1.94754C21.879 1.66647 21.7115 1.41602 21.487 1.22333V1.22323ZM6.74926 10.8317L1.68282 9.81846L15.8692 4.24512L6.74926 10.8317ZM7.75006 18.3102V13.4953L10.3115 15.7493L7.75006 18.3102ZM16.6065 19.1244L8.23857 11.7605L20.2885 3.05795L16.6065 19.1244Z" fill="white"/>
</svg>
