<svg width="22" height="22" viewBox="0 0 22 22" fill="none" xmlns="http://www.w3.org/2000/svg">
<path d="M11.0434 0.166568C5.12845 0.166568 0.307614 4.9874 0.307614 10.9024C0.307614 12.7982 0.805947 14.6399 1.73761 16.2649L0.220947 21.8332L5.90845 20.3382C7.47928 21.1941 9.24511 21.6491 11.0434 21.6491C16.9584 21.6491 21.7793 16.8282 21.7793 10.9132C21.7793 8.0424 20.6634 5.3449 18.6376 3.31907C17.6444 2.31582 16.4614 1.52038 15.1576 0.979124C13.8537 0.437872 12.4552 0.16165 11.0434 0.166568V0.166568ZM11.0543 1.97574C13.4376 1.97574 15.6693 2.9074 17.3593 4.5974C18.1887 5.42654 18.8463 6.41125 19.2943 7.49506C19.7423 8.57887 19.972 9.74047 19.9701 10.9132C19.9701 15.8316 15.9618 19.8291 11.0434 19.8291C9.44011 19.8291 7.86928 19.4066 6.50428 18.5832L6.17928 18.3991L2.79928 19.2874L3.69845 15.9941L3.48178 15.6474C2.58688 14.2268 2.11354 12.5814 2.11678 10.9024C2.12761 5.98407 6.12511 1.97574 11.0543 1.97574V1.97574ZM7.24095 5.94074C7.06761 5.94074 6.77511 6.00574 6.52595 6.27657C6.28761 6.5474 5.58345 7.20824 5.58345 8.51907C5.58345 9.84074 6.54761 11.1082 6.66678 11.2924C6.81845 11.4766 8.57345 14.1849 11.2709 15.3332C11.9101 15.6257 12.4084 15.7882 12.7984 15.9074C13.4376 16.1132 14.0226 16.0807 14.4884 16.0157C15.0084 15.9399 16.0701 15.3657 16.2976 14.7374C16.5251 14.1091 16.5251 13.5782 16.4601 13.4591C16.3843 13.3507 16.2109 13.2857 15.9401 13.1666C15.6693 13.0149 14.3476 12.3649 14.1093 12.2782C13.8601 12.1916 13.7084 12.1482 13.5026 12.4082C13.3293 12.6791 12.8093 13.2857 12.6576 13.4591C12.4951 13.6432 12.3434 13.6649 12.0834 13.5349C11.8018 13.3941 10.9351 13.1124 9.91678 12.2024C9.11511 11.4874 8.58428 10.6099 8.42178 10.3391C8.29178 10.0791 8.41095 9.91657 8.54095 9.7974C8.66011 9.67824 8.83345 9.48323 8.94178 9.32073C9.08261 9.16907 9.12595 9.0499 9.21261 8.87657C9.29928 8.6924 9.25595 8.54074 9.19095 8.41074C9.12595 8.29157 8.58428 6.94824 8.35678 6.4174C8.14011 5.8974 7.92345 5.9624 7.75011 5.95157C7.59845 5.95157 7.42511 5.94074 7.24095 5.94074V5.94074Z" fill="white"/>
</svg>
